<svg width="126" height="126" viewBox="0 0 126 126" fill="none" xmlns="http://www.w3.org/2000/svg">
<rect x="0.5" y="0.5" width="125" height="125" stroke="white"/>
<rect x="37" y="20" width="53" height="58" rx="9" stroke="white" stroke-width="6"/>
<path d="M50 37H77" stroke="white" stroke-width="6"/>
<path d="M50 49H77" stroke="white" stroke-width="6"/>
<path d="M50 61H63.5" stroke="white" stroke-width="6"/>
<path d="M25.6689 93.84H25.3189L23.1189 100H22.0989L24.6189 93H26.3489L28.8689 100H27.8489L25.6689 93.84ZM23.3889 97.38H27.4689V98.22H23.3889V97.38ZM29.4628 95H30.3228L30.3828 95.58C30.5428 95.3733 30.7461 95.2133 30.9928 95.1C31.2394 94.9867 31.5128 94.93 31.8128 94.93C32.1994 94.93 32.5328 95.0133 32.8128 95.18C33.0994 95.34 33.3194 95.58 33.4728 95.9C33.6328 96.22 33.7128 96.62 33.7128 97.1V100H32.7728V97.22C32.7728 96.7533 32.6728 96.4 32.4728 96.16C32.2794 95.9133 31.9961 95.79 31.6228 95.79C31.2361 95.79 30.9361 95.9167 30.7228 96.17C30.5094 96.4167 30.4028 96.7833 30.4028 97.27V100H29.4628V95ZM37.0382 100.07C36.5582 100.07 36.1316 99.96 35.7582 99.74C35.3916 99.5133 35.1016 99.2033 34.8882 98.81C34.6816 98.4167 34.5782 97.9667 34.5782 97.46C34.5782 96.9733 34.6816 96.54 34.8882 96.16C35.0949 95.78 35.3782 95.48 35.7382 95.26C36.1049 95.04 36.5182 94.93 36.9782 94.93C37.4449 94.93 37.8582 95.0333 38.2182 95.24C38.5782 95.44 38.8582 95.7233 39.0582 96.09C39.2582 96.45 39.3549 96.8667 39.3482 97.34C39.3482 97.42 39.3449 97.5033 39.3382 97.59C39.3316 97.67 39.3216 97.76 39.3082 97.86H35.6082C35.6282 98.1267 35.7016 98.3633 35.8282 98.57C35.9616 98.77 36.1282 98.9267 36.3282 99.04C36.5349 99.1533 36.7682 99.21 37.0282 99.21C37.3616 99.21 37.6516 99.1467 37.8982 99.02C38.1449 98.8867 38.3182 98.71 38.4182 98.49L39.2382 98.78C39.0382 99.1867 38.7449 99.5033 38.3582 99.73C37.9782 99.9567 37.5382 100.07 37.0382 100.07ZM38.3182 97.05C38.3182 96.81 38.2582 96.5933 38.1382 96.4C38.0182 96.2067 37.8549 96.0567 37.6482 95.95C37.4482 95.8367 37.2216 95.78 36.9682 95.78C36.7416 95.78 36.5316 95.8367 36.3382 95.95C36.1516 96.0567 35.9916 96.2067 35.8582 96.4C35.7316 96.5867 35.6516 96.8033 35.6182 97.05H38.3182ZM39.6777 95H40.7577L41.9277 96.75L43.0977 95H44.1777L42.4377 97.5L44.1777 100H43.0977L41.9277 98.23L40.7577 100H39.6777L41.4077 97.5L39.6777 95ZM48.0358 100L47.9558 99.27C47.8025 99.5233 47.6025 99.72 47.3558 99.86C47.1158 99.9933 46.8025 100.06 46.4158 100.06C46.0558 100.06 45.7492 100.003 45.4958 99.89C45.2425 99.77 45.0458 99.6067 44.9058 99.4C44.7725 99.1867 44.7058 98.94 44.7058 98.66C44.7058 98.24 44.8625 97.8933 45.1758 97.62C45.4892 97.34 45.9425 97.1667 46.5358 97.1L47.9558 96.94V96.55C47.9558 96.3367 47.8692 96.1567 47.6958 96.01C47.5225 95.8567 47.2725 95.78 46.9458 95.78C46.6392 95.78 46.3792 95.8533 46.1658 96C45.9525 96.14 45.8092 96.35 45.7358 96.63L44.8958 96.33C45.0225 95.89 45.2692 95.5467 45.6358 95.3C46.0092 95.0533 46.4592 94.93 46.9858 94.93C47.6125 94.93 48.0892 95.0867 48.4158 95.4C48.7425 95.7133 48.9058 96.1267 48.9058 96.64V100H48.0358ZM47.9558 97.71L46.5858 97.88C46.2925 97.92 46.0725 98.0033 45.9258 98.13C45.7792 98.25 45.7058 98.41 45.7058 98.61C45.7058 98.7967 45.7758 98.9533 45.9158 99.08C46.0625 99.2 46.2658 99.26 46.5258 99.26C46.8458 99.26 47.1125 99.2 47.3258 99.08C47.5392 98.96 47.6958 98.7933 47.7958 98.58C47.9025 98.36 47.9558 98.1067 47.9558 97.82V97.71ZM50.0593 95H50.9193L50.9793 95.67C51.1193 95.4967 51.2793 95.3533 51.4593 95.24C51.6459 95.12 51.8459 95.0367 52.0593 94.99C52.2793 94.9433 52.5059 94.9467 52.7393 95V95.89C52.5193 95.8367 52.3059 95.83 52.0993 95.87C51.8926 95.91 51.7059 95.9967 51.5393 96.13C51.3793 96.2567 51.2493 96.4267 51.1493 96.64C51.0493 96.8533 50.9993 97.11 50.9993 97.41V100H50.0593V95ZM55.7748 96.5C55.7748 95.9733 55.8648 95.4933 56.0448 95.06C56.2248 94.62 56.4748 94.2433 56.7948 93.93C57.1148 93.61 57.4848 93.3633 57.9048 93.19C58.3315 93.0167 58.7915 92.93 59.2848 92.93C59.9848 92.93 60.6081 93.0933 61.1548 93.42C61.7081 93.7467 62.1281 94.2167 62.4148 94.83L61.6148 95.12C61.4548 94.8067 61.2515 94.5533 61.0048 94.36C60.7581 94.1667 60.4881 94.0233 60.1948 93.93C59.9015 93.8367 59.6048 93.79 59.3048 93.79C58.8315 93.79 58.4015 93.9 58.0148 94.12C57.6348 94.34 57.3348 94.6533 57.1148 95.06C56.9015 95.4667 56.7948 95.9467 56.7948 96.5C56.7948 97.0467 56.9015 97.5233 57.1148 97.93C57.3348 98.3367 57.6348 98.6533 58.0148 98.88C58.4015 99.1 58.8315 99.21 59.3048 99.21C59.6115 99.21 59.9148 99.16 60.2148 99.06C60.5148 98.96 60.7948 98.8 61.0548 98.58C61.3148 98.3533 61.5281 98.06 61.6948 97.7L62.4948 97.98C62.1948 98.6867 61.7648 99.2133 61.2048 99.56C60.6448 99.9 60.0048 100.07 59.2848 100.07C58.7915 100.07 58.3315 99.9833 57.9048 99.81C57.4848 99.6367 57.1148 99.39 56.7948 99.07C56.4748 98.75 56.2248 98.3733 56.0448 97.94C55.8648 97.5 55.7748 97.02 55.7748 96.5ZM65.7015 100.07C65.2215 100.07 64.7949 99.96 64.4215 99.74C64.0549 99.5133 63.7649 99.2033 63.5515 98.81C63.3449 98.4167 63.2415 97.9667 63.2415 97.46C63.2415 96.9733 63.3449 96.54 63.5515 96.16C63.7582 95.78 64.0415 95.48 64.4015 95.26C64.7682 95.04 65.1815 94.93 65.6415 94.93C66.1082 94.93 66.5215 95.0333 66.8815 95.24C67.2415 95.44 67.5215 95.7233 67.7215 96.09C67.9215 96.45 68.0182 96.8667 68.0115 97.34C68.0115 97.42 68.0082 97.5033 68.0015 97.59C67.9949 97.67 67.9849 97.76 67.9715 97.86H64.2715C64.2915 98.1267 64.3649 98.3633 64.4915 98.57C64.6249 98.77 64.7915 98.9267 64.9915 99.04C65.1982 99.1533 65.4315 99.21 65.6915 99.21C66.0249 99.21 66.3149 99.1467 66.5615 99.02C66.8082 98.8867 66.9815 98.71 67.0815 98.49L67.9015 98.78C67.7015 99.1867 67.4082 99.5033 67.0215 99.73C66.6415 99.9567 66.2015 100.07 65.7015 100.07ZM66.9815 97.05C66.9815 96.81 66.9215 96.5933 66.8015 96.4C66.6815 96.2067 66.5182 96.0567 66.3115 95.95C66.1115 95.8367 65.8849 95.78 65.6315 95.78C65.4049 95.78 65.1949 95.8367 65.0015 95.95C64.8149 96.0567 64.6549 96.2067 64.5215 96.4C64.3949 96.5867 64.3149 96.8033 64.2815 97.05H66.9815ZM68.9663 95H69.8263L69.8863 95.67C70.0263 95.4967 70.1863 95.3533 70.3663 95.24C70.553 95.12 70.753 95.0367 70.9663 94.99C71.1863 94.9433 71.413 94.9467 71.6463 95V95.89C71.4263 95.8367 71.213 95.83 71.0063 95.87C70.7996 95.91 70.613 95.9967 70.4463 96.13C70.2863 96.2567 70.1563 96.4267 70.0563 96.64C69.9563 96.8533 69.9063 97.11 69.9063 97.41V100H68.9663V95ZM72.7191 95V93.6H73.6691V95H74.9191V95.84H73.6691V98.3C73.6691 98.6067 73.7291 98.8233 73.8491 98.95C73.9758 99.0767 74.1324 99.15 74.3191 99.17C74.5124 99.1833 74.7124 99.1767 74.9191 99.15V99.96C74.6458 100.02 74.3758 100.037 74.1091 100.01C73.8491 99.99 73.6124 99.9167 73.3991 99.79C73.1924 99.6633 73.0258 99.48 72.8991 99.24C72.7791 98.9933 72.7191 98.68 72.7191 98.3V95.84H71.9991V95H72.7191ZM75.9233 95H76.8733V100H75.9233V95ZM76.4033 94.12C76.2233 94.12 76.0733 94.06 75.9533 93.94C75.8333 93.82 75.7733 93.6733 75.7733 93.5C75.7733 93.32 75.8333 93.17 75.9533 93.05C76.0733 92.9233 76.2233 92.86 76.4033 92.86C76.5767 92.86 76.7233 92.9233 76.8433 93.05C76.97 93.17 77.0333 93.32 77.0333 93.5C77.0333 93.6733 76.97 93.82 76.8433 93.94C76.7233 94.06 76.5767 94.12 76.4033 94.12ZM81.6991 94.13C81.5258 94.13 81.3758 94.07 81.2491 93.95C81.1291 93.83 81.0691 93.6833 81.0691 93.51C81.0691 93.3233 81.1291 93.17 81.2491 93.05C81.3758 92.9233 81.5258 92.86 81.6991 92.86C81.8791 92.86 82.0324 92.9233 82.1591 93.05C82.2858 93.17 82.3491 93.3233 82.3491 93.51C82.3491 93.6833 82.2858 93.83 82.1591 93.95C82.0324 94.07 81.8791 94.13 81.6991 94.13ZM82.1691 94.99V100H81.2191V95.83H77.8491V94.99H82.1691ZM78.4891 94.44C78.4891 94.06 78.5524 93.74 78.6791 93.48C78.8124 93.22 79.0158 93.0333 79.2891 92.92C79.5624 92.8 79.9224 92.76 80.3691 92.8V93.63C80.0224 93.5967 79.7791 93.65 79.6391 93.79C79.5058 93.93 79.4391 94.1467 79.4391 94.44V100H78.4891V94.44ZM85.7164 100.07C85.2364 100.07 84.8131 99.9633 84.4464 99.75C84.0798 99.53 83.7931 99.23 83.5864 98.85C83.3864 98.47 83.2864 98.0267 83.2864 97.52C83.2864 97.0067 83.3898 96.5567 83.5964 96.17C83.8031 95.7833 84.0898 95.48 84.4564 95.26C84.8231 95.04 85.2498 94.93 85.7364 94.93C86.2498 94.93 86.6998 95.05 87.0864 95.29C87.4798 95.53 87.7631 95.8533 87.9364 96.26L87.0864 96.56C86.9864 96.3267 86.8164 96.14 86.5764 96C86.3431 95.86 86.0764 95.79 85.7764 95.79C85.4698 95.79 85.2064 95.8633 84.9864 96.01C84.7664 96.15 84.5964 96.35 84.4764 96.61C84.3564 96.8633 84.2964 97.1633 84.2964 97.51C84.2964 98.03 84.4298 98.4433 84.6964 98.75C84.9631 99.0567 85.3231 99.21 85.7764 99.21C86.0764 99.21 86.3431 99.1433 86.5764 99.01C86.8164 98.8767 86.9964 98.6933 87.1164 98.46L87.9564 98.76C87.7698 99.16 87.4764 99.48 87.0764 99.72C86.6764 99.9533 86.2231 100.07 85.7164 100.07ZM91.9538 100L91.8738 99.27C91.7205 99.5233 91.5205 99.72 91.2738 99.86C91.0338 99.9933 90.7205 100.06 90.3338 100.06C89.9738 100.06 89.6671 100.003 89.4138 99.89C89.1605 99.77 88.9638 99.6067 88.8238 99.4C88.6905 99.1867 88.6238 98.94 88.6238 98.66C88.6238 98.24 88.7805 97.8933 89.0938 97.62C89.4071 97.34 89.8605 97.1667 90.4538 97.1L91.8738 96.94V96.55C91.8738 96.3367 91.7871 96.1567 91.6138 96.01C91.4405 95.8567 91.1905 95.78 90.8638 95.78C90.5571 95.78 90.2971 95.8533 90.0838 96C89.8705 96.14 89.7271 96.35 89.6538 96.63L88.8138 96.33C88.9405 95.89 89.1871 95.5467 89.5538 95.3C89.9271 95.0533 90.3771 94.93 90.9038 94.93C91.5305 94.93 92.0071 95.0867 92.3338 95.4C92.6605 95.7133 92.8238 96.1267 92.8238 96.64V100H91.9538ZM91.8738 97.71L90.5038 97.88C90.2105 97.92 89.9905 98.0033 89.8438 98.13C89.6971 98.25 89.6238 98.41 89.6238 98.61C89.6238 98.7967 89.6938 98.9533 89.8338 99.08C89.9805 99.2 90.1838 99.26 90.4438 99.26C90.7638 99.26 91.0305 99.2 91.2438 99.08C91.4571 98.96 91.6138 98.7933 91.7138 98.58C91.8205 98.36 91.8738 98.1067 91.8738 97.82V97.71ZM97.7472 95.85L97.6372 95.88V92.8H98.5872V100H97.7272L97.6572 99.25C97.4906 99.4767 97.2639 99.67 96.9772 99.83C96.6972 99.99 96.3539 100.07 95.9472 100.07C95.4939 100.07 95.0972 99.9633 94.7572 99.75C94.4239 99.5367 94.1606 99.2367 93.9672 98.85C93.7806 98.4633 93.6872 98.0133 93.6872 97.5C93.6872 96.9867 93.7806 96.5367 93.9672 96.15C94.1606 95.7633 94.4239 95.4633 94.7572 95.25C95.0972 95.0367 95.4939 94.93 95.9472 94.93C96.3806 94.93 96.7472 95.02 97.0472 95.2C97.3539 95.3733 97.5872 95.59 97.7472 95.85ZM94.6972 97.5C94.6972 98.0133 94.8306 98.4267 95.0972 98.74C95.3639 99.0533 95.7206 99.21 96.1672 99.21C96.4406 99.21 96.6872 99.1433 96.9072 99.01C97.1272 98.8767 97.3039 98.6833 97.4372 98.43C97.5706 98.17 97.6372 97.86 97.6372 97.5C97.6372 97.14 97.5706 96.8333 97.4372 96.58C97.3039 96.3267 97.1272 96.1333 96.9072 96C96.6872 95.86 96.4406 95.79 96.1672 95.79C95.7272 95.79 95.3706 95.9467 95.0972 96.26C94.8306 96.5733 94.6972 96.9867 94.6972 97.5ZM102.002 100.07C101.529 100.07 101.102 99.9667 100.722 99.76C100.349 99.5467 100.056 99.25 99.8424 98.87C99.6291 98.4833 99.5224 98.03 99.5224 97.51C99.5224 96.9833 99.6324 96.5267 99.8524 96.14C100.072 95.7533 100.372 95.4567 100.752 95.25C101.132 95.0367 101.559 94.93 102.032 94.93C102.506 94.93 102.932 95.0367 103.312 95.25C103.699 95.4567 104.002 95.7533 104.222 96.14C104.442 96.52 104.552 96.97 104.552 97.49C104.552 98.0167 104.439 98.4733 104.212 98.86C103.992 99.2467 103.689 99.5467 103.302 99.76C102.916 99.9667 102.482 100.07 102.002 100.07ZM101.992 99.21C102.259 99.21 102.509 99.15 102.742 99.03C102.976 98.9033 103.166 98.7133 103.312 98.46C103.466 98.2067 103.542 97.8833 103.542 97.49C103.542 97.1033 103.469 96.7867 103.322 96.54C103.182 96.2867 102.996 96.1 102.762 95.98C102.529 95.8533 102.279 95.79 102.012 95.79C101.752 95.79 101.509 95.8533 101.282 95.98C101.062 96.1 100.882 96.2867 100.742 96.54C100.602 96.7933 100.532 97.1167 100.532 97.51C100.532 97.8967 100.599 98.2167 100.732 98.47C100.872 98.7167 101.052 98.9033 101.272 99.03C101.492 99.15 101.732 99.21 101.992 99.21ZM37.5519 107.85L37.4419 107.88V104.8H38.3919V112H37.5319L37.4619 111.25C37.2952 111.477 37.0686 111.67 36.7819 111.83C36.5019 111.99 36.1586 112.07 35.7519 112.07C35.2986 112.07 34.9019 111.963 34.5619 111.75C34.2286 111.537 33.9652 111.237 33.7719 110.85C33.5852 110.463 33.4919 110.013 33.4919 109.5C33.4919 108.987 33.5852 108.537 33.7719 108.15C33.9652 107.763 34.2286 107.463 34.5619 107.25C34.9019 107.037 35.2986 106.93 35.7519 106.93C36.1852 106.93 36.5519 107.02 36.8519 107.2C37.1586 107.373 37.3919 107.59 37.5519 107.85ZM34.5019 109.5C34.5019 110.013 34.6352 110.427 34.9019 110.74C35.1686 111.053 35.5252 111.21 35.9719 111.21C36.2452 111.21 36.4919 111.143 36.7119 111.01C36.9319 110.877 37.1086 110.683 37.2419 110.43C37.3752 110.17 37.4419 109.86 37.4419 109.5C37.4419 109.14 37.3752 108.833 37.2419 108.58C37.1086 108.327 36.9319 108.133 36.7119 108C36.4919 107.86 36.2452 107.79 35.9719 107.79C35.5319 107.79 35.1752 107.947 34.9019 108.26C34.6352 108.573 34.5019 108.987 34.5019 109.5ZM41.7871 112.07C41.3071 112.07 40.8804 111.96 40.5071 111.74C40.1404 111.513 39.8504 111.203 39.6371 110.81C39.4304 110.417 39.3271 109.967 39.3271 109.46C39.3271 108.973 39.4304 108.54 39.6371 108.16C39.8437 107.78 40.1271 107.48 40.4871 107.26C40.8537 107.04 41.2671 106.93 41.7271 106.93C42.1937 106.93 42.6071 107.033 42.9671 107.24C43.3271 107.44 43.6071 107.723 43.8071 108.09C44.0071 108.45 44.1037 108.867 44.0971 109.34C44.0971 109.42 44.0937 109.503 44.0871 109.59C44.0804 109.67 44.0704 109.76 44.0571 109.86H40.3571C40.3771 110.127 40.4504 110.363 40.5771 110.57C40.7104 110.77 40.8771 110.927 41.0771 111.04C41.2837 111.153 41.5171 111.21 41.7771 111.21C42.1104 111.21 42.4004 111.147 42.6471 111.02C42.8937 110.887 43.0671 110.71 43.1671 110.49L43.9871 110.78C43.7871 111.187 43.4937 111.503 43.1071 111.73C42.7271 111.957 42.2871 112.07 41.7871 112.07ZM43.0671 109.05C43.0671 108.81 43.0071 108.593 42.8871 108.4C42.7671 108.207 42.6037 108.057 42.3971 107.95C42.1971 107.837 41.9704 107.78 41.7171 107.78C41.4904 107.78 41.2804 107.837 41.0871 107.95C40.9004 108.057 40.7404 108.207 40.6071 108.4C40.4804 108.587 40.4004 108.803 40.3671 109.05H43.0671ZM47.3346 108.5C47.3346 107.973 47.4246 107.493 47.6046 107.06C47.7846 106.62 48.0346 106.243 48.3546 105.93C48.6746 105.61 49.0446 105.363 49.4646 105.19C49.8912 105.017 50.3512 104.93 50.8446 104.93C51.5446 104.93 52.1679 105.093 52.7146 105.42C53.2679 105.747 53.6879 106.217 53.9746 106.83L53.1746 107.12C53.0146 106.807 52.8112 106.553 52.5646 106.36C52.3179 106.167 52.0479 106.023 51.7546 105.93C51.4612 105.837 51.1646 105.79 50.8646 105.79C50.3912 105.79 49.9612 105.9 49.5746 106.12C49.1946 106.34 48.8946 106.653 48.6746 107.06C48.4612 107.467 48.3546 107.947 48.3546 108.5C48.3546 109.047 48.4612 109.523 48.6746 109.93C48.8946 110.337 49.1946 110.653 49.5746 110.88C49.9612 111.1 50.3912 111.21 50.8646 111.21C51.1712 111.21 51.4746 111.16 51.7746 111.06C52.0746 110.96 52.3546 110.8 52.6146 110.58C52.8746 110.353 53.0879 110.06 53.2546 109.7L54.0546 109.98C53.7546 110.687 53.3246 111.213 52.7646 111.56C52.2046 111.9 51.5646 112.07 50.8446 112.07C50.3512 112.07 49.8912 111.983 49.4646 111.81C49.0446 111.637 48.6746 111.39 48.3546 111.07C48.0346 110.75 47.7846 110.373 47.6046 109.94C47.4246 109.5 47.3346 109.02 47.3346 108.5ZM57.2813 112.07C56.808 112.07 56.3813 111.967 56.0013 111.76C55.628 111.547 55.3346 111.25 55.1213 110.87C54.908 110.483 54.8013 110.03 54.8013 109.51C54.8013 108.983 54.9113 108.527 55.1313 108.14C55.3513 107.753 55.6513 107.457 56.0313 107.25C56.4113 107.037 56.838 106.93 57.3113 106.93C57.7846 106.93 58.2113 107.037 58.5913 107.25C58.978 107.457 59.2813 107.753 59.5013 108.14C59.7213 108.52 59.8313 108.97 59.8313 109.49C59.8313 110.017 59.718 110.473 59.4913 110.86C59.2713 111.247 58.968 111.547 58.5813 111.76C58.1946 111.967 57.7613 112.07 57.2813 112.07ZM57.2713 111.21C57.538 111.21 57.788 111.15 58.0213 111.03C58.2546 110.903 58.4446 110.713 58.5913 110.46C58.7446 110.207 58.8213 109.883 58.8213 109.49C58.8213 109.103 58.748 108.787 58.6013 108.54C58.4613 108.287 58.2746 108.1 58.0413 107.98C57.808 107.853 57.558 107.79 57.2913 107.79C57.0313 107.79 56.788 107.853 56.5613 107.98C56.3413 108.1 56.1613 108.287 56.0213 108.54C55.8813 108.793 55.8113 109.117 55.8113 109.51C55.8113 109.897 55.878 110.217 56.0113 110.47C56.1513 110.717 56.3313 110.903 56.5513 111.03C56.7713 111.15 57.0113 111.21 57.2713 111.21ZM60.78 107H61.64L61.7 107.58C61.86 107.373 62.0633 107.213 62.31 107.1C62.5566 106.987 62.83 106.93 63.13 106.93C63.5166 106.93 63.85 107.013 64.13 107.18C64.4166 107.34 64.6366 107.58 64.79 107.9C64.95 108.22 65.03 108.62 65.03 109.1V112H64.09V109.22C64.09 108.753 63.99 108.4 63.79 108.16C63.5966 107.913 63.3133 107.79 62.94 107.79C62.5533 107.79 62.2533 107.917 62.04 108.17C61.8266 108.417 61.72 108.783 61.72 109.27V112H60.78V107ZM68.3254 112.07C67.8454 112.07 67.4221 111.963 67.0554 111.75C66.6888 111.53 66.4021 111.23 66.1954 110.85C65.9954 110.47 65.8954 110.027 65.8954 109.52C65.8954 109.007 65.9988 108.557 66.2054 108.17C66.4121 107.783 66.6988 107.48 67.0654 107.26C67.4321 107.04 67.8588 106.93 68.3454 106.93C68.8588 106.93 69.3088 107.05 69.6954 107.29C70.0888 107.53 70.3721 107.853 70.5454 108.26L69.6954 108.56C69.5954 108.327 69.4254 108.14 69.1854 108C68.9521 107.86 68.6854 107.79 68.3854 107.79C68.0788 107.79 67.8154 107.863 67.5954 108.01C67.3754 108.15 67.2054 108.35 67.0854 108.61C66.9654 108.863 66.9054 109.163 66.9054 109.51C66.9054 110.03 67.0388 110.443 67.3054 110.75C67.5721 111.057 67.9321 111.21 68.3854 111.21C68.6854 111.21 68.9521 111.143 69.1854 111.01C69.4254 110.877 69.6054 110.693 69.7254 110.46L70.5654 110.76C70.3788 111.16 70.0854 111.48 69.6854 111.72C69.2854 111.953 68.8321 112.07 68.3254 112.07ZM71.5128 104.8H72.4528V112H71.5128V104.8ZM77.8658 112H77.0058L76.9358 111.41C76.7758 111.623 76.5725 111.787 76.3258 111.9C76.0858 112.013 75.8158 112.07 75.5158 112.07C75.1292 112.07 74.7925 111.99 74.5058 111.83C74.2192 111.663 73.9958 111.423 73.8358 111.11C73.6825 110.79 73.6058 110.393 73.6058 109.92V107H74.5558V109.8C74.5558 110.26 74.6492 110.61 74.8358 110.85C75.0292 111.09 75.3192 111.21 75.7058 111.21C76.0858 111.21 76.3825 111.087 76.5958 110.84C76.8158 110.593 76.9258 110.227 76.9258 109.74V107H77.8658V112ZM79.6513 110.42C79.698 110.62 79.778 110.777 79.8913 110.89C80.0046 111.003 80.138 111.087 80.2913 111.14C80.4513 111.187 80.618 111.21 80.7913 111.21C81.0913 111.21 81.3246 111.15 81.4913 111.03C81.658 110.91 81.7413 110.76 81.7413 110.58C81.7413 110.427 81.688 110.307 81.5813 110.22C81.4813 110.127 81.3446 110.053 81.1713 110C81.0046 109.947 80.8246 109.897 80.6313 109.85C80.458 109.803 80.268 109.75 80.0613 109.69C79.8613 109.63 79.6713 109.55 79.4913 109.45C79.318 109.343 79.1746 109.21 79.0613 109.05C78.948 108.883 78.8913 108.673 78.8913 108.42C78.8913 108.12 78.9713 107.86 79.1313 107.64C79.298 107.413 79.5246 107.24 79.8113 107.12C80.1046 106.993 80.4346 106.93 80.8013 106.93C81.228 106.93 81.6013 107.023 81.9213 107.21C82.248 107.39 82.4846 107.663 82.6313 108.03L81.7813 108.31C81.7346 108.183 81.658 108.08 81.5513 108C81.4446 107.92 81.3213 107.867 81.1813 107.84C81.048 107.807 80.9146 107.79 80.7813 107.79C80.528 107.79 80.318 107.84 80.1513 107.94C79.9846 108.04 79.9013 108.187 79.9013 108.38C79.9013 108.487 79.928 108.577 79.9813 108.65C80.0346 108.717 80.108 108.773 80.2013 108.82C80.3013 108.86 80.418 108.897 80.5513 108.93C80.6846 108.963 80.828 109 80.9813 109.04C81.1813 109.1 81.3846 109.167 81.5913 109.24C81.798 109.307 81.988 109.393 82.1613 109.5C82.3346 109.607 82.4746 109.747 82.5813 109.92C82.688 110.093 82.7446 110.307 82.7513 110.56C82.7513 110.853 82.668 111.113 82.5013 111.34C82.3413 111.567 82.1113 111.747 81.8113 111.88C81.518 112.007 81.168 112.07 80.7613 112.07C80.268 112.07 79.848 111.96 79.5013 111.74C79.1546 111.52 78.9213 111.18 78.8013 110.72L79.6513 110.42ZM84.266 106.46C84.3126 106.14 84.4193 105.9 84.586 105.74C84.7526 105.58 84.956 105.5 85.196 105.5C85.356 105.5 85.4893 105.533 85.596 105.6C85.7026 105.667 85.8026 105.733 85.896 105.8C85.996 105.867 86.1026 105.9 86.216 105.9C86.316 105.9 86.4026 105.87 86.476 105.81C86.5493 105.75 86.596 105.657 86.616 105.53H87.126C87.0793 105.857 86.9693 106.1 86.796 106.26C86.6293 106.413 86.426 106.49 86.186 106.49C86.0193 106.49 85.8826 106.457 85.776 106.39C85.6693 106.323 85.5693 106.257 85.476 106.19C85.3826 106.117 85.276 106.08 85.156 106.08C85.056 106.08 84.9693 106.113 84.896 106.18C84.8293 106.24 84.7893 106.333 84.776 106.46H84.266ZM86.746 112L86.666 111.27C86.5126 111.523 86.3126 111.72 86.066 111.86C85.826 111.993 85.5126 112.06 85.126 112.06C84.766 112.06 84.4593 112.003 84.206 111.89C83.9526 111.77 83.756 111.607 83.616 111.4C83.4826 111.187 83.416 110.94 83.416 110.66C83.416 110.24 83.5726 109.893 83.886 109.62C84.1993 109.34 84.6526 109.167 85.246 109.1L86.666 108.94V108.55C86.666 108.337 86.5793 108.157 86.406 108.01C86.2326 107.857 85.9826 107.78 85.656 107.78C85.3493 107.78 85.0893 107.853 84.876 108C84.6626 108.14 84.5193 108.35 84.446 108.63L83.606 108.33C83.7326 107.89 83.9793 107.547 84.346 107.3C84.7193 107.053 85.1693 106.93 85.696 106.93C86.3226 106.93 86.7993 107.087 87.126 107.4C87.4526 107.713 87.616 108.127 87.616 108.64V112H86.746ZM86.666 109.71L85.296 109.88C85.0026 109.92 84.7826 110.003 84.636 110.13C84.4893 110.25 84.416 110.41 84.416 110.61C84.416 110.797 84.486 110.953 84.626 111.08C84.7726 111.2 84.976 111.26 85.236 111.26C85.556 111.26 85.8226 111.2 86.036 111.08C86.2493 110.96 86.406 110.793 86.506 110.58C86.6126 110.36 86.666 110.107 86.666 109.82V109.71ZM90.9594 112.07C90.4861 112.07 90.0594 111.967 89.6794 111.76C89.3061 111.547 89.0127 111.25 88.7994 110.87C88.5861 110.483 88.4794 110.03 88.4794 109.51C88.4794 108.983 88.5894 108.527 88.8094 108.14C89.0294 107.753 89.3294 107.457 89.7094 107.25C90.0894 107.037 90.5161 106.93 90.9894 106.93C91.4627 106.93 91.8894 107.037 92.2694 107.25C92.6561 107.457 92.9594 107.753 93.1794 108.14C93.3994 108.52 93.5094 108.97 93.5094 109.49C93.5094 110.017 93.3961 110.473 93.1694 110.86C92.9494 111.247 92.6461 111.547 92.2594 111.76C91.8727 111.967 91.4394 112.07 90.9594 112.07ZM90.9494 111.21C91.2161 111.21 91.4661 111.15 91.6994 111.03C91.9327 110.903 92.1227 110.713 92.2694 110.46C92.4227 110.207 92.4994 109.883 92.4994 109.49C92.4994 109.103 92.4261 108.787 92.2794 108.54C92.1394 108.287 91.9527 108.1 91.7194 107.98C91.4861 107.853 91.2361 107.79 90.9694 107.79C90.7094 107.79 90.4661 107.853 90.2394 107.98C90.0194 108.1 89.8394 108.287 89.6994 108.54C89.5594 108.793 89.4894 109.117 89.4894 109.51C89.4894 109.897 89.5561 110.217 89.6894 110.47C89.8294 110.717 90.0094 110.903 90.2294 111.03C90.4494 111.15 90.6894 111.21 90.9494 111.21Z" fill="white"/>
</svg>
